<?xml version="1.0" encoding="UTF-8" standalone="no"?><!DOCTYPE svg PUBLIC "-//W3C//DTD SVG 1.1//EN" "http://www.w3.org/Graphics/SVG/1.1/DTD/svg11.dtd"><svg width="100%" height="100%" viewBox="0 0 267 267" version="1.1" xmlns="http://www.w3.org/2000/svg" xmlns:xlink="http://www.w3.org/1999/xlink" xml:space="preserve" xmlns:serif="http://www.serif.com/" style="fill-rule:evenodd;clip-rule:evenodd;stroke-linejoin:round;stroke-miterlimit:2;"><path d="M266.667,37.5l0,191.667c0,20.697 -16.803,37.5 -37.5,37.5l-191.667,0c-20.697,0 -37.5,-16.803 -37.5,-37.5l0,-191.667c0,-20.697 16.803,-37.5 37.5,-37.5l191.667,0c20.697,0 37.5,16.803 37.5,37.5Z" style="fill:#fff;"/><clipPath id="_clip1"><rect x="54.641" y="40.853" width="157.386" height="184.962"/></clipPath><g clip-path="url(#_clip1)"><g><g><g><path d="M54.651,86.014l78.503,29.319c6.983,-2.38 14.309,-5.384 21.29,-7.915c19.1,-6.926 38.171,-14.541 57.281,-21.38l-0.017,65.295c0,14.821 -0.118,29.829 0.058,44.63l-50.109,18.728c-9.146,3.425 -19.354,7.529 -28.52,10.621c-8.134,-2.756 -17.364,-6.475 -25.485,-9.511l-53.013,-19.782l0.011,-110.004Z" style="fill:#0ea5e9;fill-rule:nonzero;"/></g></g><g><g><path d="M128.451,41.047c2.059,-0.305 7.87,-0.216 10.009,0.021c14.865,1.641 26.163,8.313 35.565,19.595c-20.514,11.124 -41.676,12.848 -63.526,4.099c-0.693,0.611 -2.809,3.828 -3.517,4.728c-6.6,8.394 -15.148,14.521 -25.353,17.536c3.493,-24.989 21.388,-43.501 46.822,-45.979Z" style="fill:#0ea5e9;fill-rule:nonzero;"/></g></g><g><g><path d="M131.7,79.484l6.792,0.016l0,26.239l-5.978,-0.037l-7.247,0.002c-0.017,-2.23 0.036,-4.54 0.058,-6.775l6.358,0.005c-0.034,-6.483 -0.029,-12.967 0.017,-19.45Z" style="fill:#0ea5e9;fill-rule:nonzero;"/></g></g><g><g><path d="M109.568,82.643c3.392,-0.53 6.574,1.783 7.115,5.174c0.541,3.39 -1.762,6.58 -5.151,7.132c-3.404,0.554 -6.611,-1.762 -7.154,-5.168c-0.544,-3.406 1.783,-6.605 5.19,-7.138Z" style="fill:#0ea5e9;fill-rule:nonzero;"/></g></g><g><g><path d="M154.785,82.632c3.401,-0.466 6.536,1.909 7.01,5.309c0.471,3.4 -1.897,6.541 -5.296,7.02c-3.408,0.48 -6.56,-1.897 -7.034,-5.306c-0.474,-3.409 1.91,-6.555 5.32,-7.023Z" style="fill:#0ea5e9;fill-rule:nonzero;"/></g></g></g></g></svg>